<?xml version="1.0" encoding="UTF-8"?>
<svg xmlns="http://www.w3.org/2000/svg" viewBox="0 0 170 47" fill-rule="evenodd" clip-rule="evenodd" stroke-linejoin="round" stroke-miterlimit="2">
  <g fill-rule="nonzero">
    <path d="M55.75 14.37h7.04c2 0 2.98.22 3.98.92 1.16.81 1.87 2.19 1.87 3.76 0 2.08-1.16 3.49-3.28 4.01 1.06.22 1.54.41 2.14.87 1.11.81 1.71 2.08 1.71 3.6 0 1.38-.54 2.71-1.46 3.57-.97.92-2.22 1.33-4.12 1.33h-7.88V14.37zm7.04 7.58c1.6 0 2.63-1.03 2.63-2.6 0-1.46-1.06-2.41-2.68-2.41h-3.9v5.01h3.95zm.24 7.77c1.76 0 2.87-1 2.87-2.6 0-1.54-1.14-2.6-2.84-2.6h-4.22v5.2h4.19zm8.59 2.71V19.08h2.73v3.19c.62-2.33 2.19-3.71 4.06-3.57v3.25h-.19l-.51.03c-1.73.05-3.09 1.9-3.09 4.28v6.17h-3zm8.36-14.92v-3.14h3.01v3.14h-3.01zm0 14.92V19.08h3.01v13.35h-3.01zm5.96-18.06h3.01v18.06h-3.01zm5.93 0h3.01v18.06h-3.01zm10.88 18.06V14.37h7.39c1.73 0 2.71.24 3.79.89 1.57 1 2.44 2.6 2.44 4.52 0 3.22-2.44 5.5-5.85 5.5H106v7.15h-3.25zm7.09-9.93c1.92 0 3.11-1.03 3.11-2.68 0-.73-.32-1.57-.81-2-.51-.49-1.35-.73-2.6-.73H106v5.41h3.84zm18.47-.95c.79 1.27 1.11 2.49 1.11 4.22 0 4.09-2.6 6.93-6.34 6.93-2.06 0-3.68-.84-4.77-2.46-.89-1.3-1.33-2.82-1.33-4.52 0-4.06 2.57-6.9 6.25-6.9 2.26-.01 3.89.86 5.08 2.73zm-8.12 4.19c0 2.87 1.08 4.49 3.01 4.49 1.95 0 3.03-1.62 3.03-4.55 0-2.87-1.06-4.41-2.98-4.41-1.95.01-3.06 1.6-3.06 4.47zm23.82 6.69h-2.71l-2.41-9.37-2.38 9.37h-2.79l-4.12-13.35h3.19l2.65 8.99 2.27-8.99h2.73l2.36 8.99 2.57-8.99h2.55l-3.91 13.35zm16.46-3.9c-.89 2.71-2.95 4.17-5.93 4.17-3.74 0-6.15-2.71-6.15-6.9 0-4.17 2.52-6.99 6.28-6.99 3.84 0 5.98 2.6 6.01 7.31h-9.15v.38c.03 2.44 1.19 3.82 3.19 3.82 1.54 0 2.38-.62 3.01-2.17l2.74.38zm-2.89-4.36c-.05-1-.22-1.46-.68-2.08-.57-.76-1.35-1.16-2.33-1.16-1.71 0-2.79 1.14-3.03 3.25h6.04v-.01zm5.3 8.26V19.08h2.73v3.19c.62-2.33 2.19-3.71 4.06-3.57v3.25h-.19l-.51.03c-1.73.05-3.09 1.9-3.09 4.28v6.17h-3z" fill="#262626"></path>
    <path d="M29.77 8.82h-5.26c-.33 0-.6.27-.6.6v12.75c0 .33.27.6.6.6h6.77c.33 0 .6-.27.6-.6V10.93c0-1.17-.94-2.11-2.11-2.11m.58 12.11c0 .17-.14.31-.31.31h-4.29c-.17 0-.31-.14-.31-.31v-4.05c0-.35.15-.68.41-.92l3.98-3.6c.2-.18.52-.04.52.23v8.34z" fill="#36ae78"></path>
    <path d="M37.26 24.3H24.51c-.33 0-.6.27-.6.6v6.77c0 .33.27.6.6.6h11.24c1.16 0 2.11-.94 2.11-2.11V24.9c0-.33-.27-.6-.6-.6m-3.17 6.44h-8.34c-.17 0-.31-.14-.31-.31v-4.29c0-.17.14-.31.31-.31h4.05c.35 0 .68.15.92.41l3.6 3.98c.18.21.04.52-.23.52" fill="#d34563"></path>
    <path d="M21.77 24.3H15c-.33 0-.6.27-.6.6v11.24c0 1.16.94 2.11 2.11 2.11h5.26c.33 0 .6-.27.6-.6V24.9c0-.33-.27-.6-.6-.6m-.93 5.9c0 .35-.15.68-.41.92l-3.98 3.6c-.2.18-.52.04-.52-.23v-8.34c0-.17.14-.31.31-.31h4.29c.17 0 .31.14.31.31v4.05z" fill="#ee7748"></path>
    <path d="M21.77 14.8H10.53c-1.16 0-2.11.94-2.11 2.11v5.26c0 .33.27.6.6.6h12.75c.33 0 .6-.27.6-.6V15.4c0-.33-.27-.6-.6-.6m-.93 6.13c0 .17-.14.31-.31.31h-4.05c-.35 0-.68-.15-.92-.41l-3.6-3.98c-.18-.2-.04-.52.23-.52h8.34c.17 0 .31.14.31.31v4.29z" fill="#e2bf3a"></path>
    <path d="M44.06 22.76h1.45c-.4-11.72-9.86-21.19-21.59-21.59v1.45c10.92.4 19.74 9.21 20.14 20.14" fill="#36ae78"></path>
    <path d="M2.23 24.31H.78c.4 11.72 9.86 21.19 21.59 21.59v-1.45c-10.93-.4-19.74-9.21-20.14-20.14" fill="#ee7748"></path>
    <path d="M23.92 44.45v1.45c11.72-.4 21.19-9.86 21.59-21.59h-1.45c-.4 10.93-9.22 19.74-20.14 20.14" fill="#d34563"></path>
    <path d="M22.37 2.62V1.17C10.65 1.57 1.18 11.03.78 22.76h1.45c.4-10.93 9.21-19.74 20.14-20.14" fill="#e2bf3a"></path>
  </g>
</svg>
